<?xml version="1.0" encoding="UTF-8" standalone="no"?>
<!DOCTYPE svg PUBLIC "-//W3C//DTD SVG 1.1//EN" "http://www.w3.org/Graphics/SVG/1.1/DTD/svg11.dtd">
<svg width="100%" height="100%" viewBox="0 0 16 16" version="1.1" xmlns="http://www.w3.org/2000/svg" xmlns:xlink="http://www.w3.org/1999/xlink" xml:space="preserve" xmlns:serif="http://www.serif.com/" style="fill-rule:evenodd;clip-rule:evenodd;stroke-linecap:round;stroke-linejoin:round;stroke-miterlimit:1.5;">
    <path d="M0,0L16,0" style="fill:none;stroke:black;stroke-width:1px;"/>
    <path d="M0,0L0,16L0,0Z" style="fill:none;stroke:black;stroke-width:1px;stroke-linecap:butt;"/>
    <g transform="matrix(1,0,0,1,-0.254777,0.448407)">
        <path d="M16.255,15.552L0.255,15.552" style="fill:none;stroke:black;stroke-width:1px;stroke-linecap:butt;"/>
    </g>
    <path d="M16,0L16,16" style="fill:none;stroke:black;stroke-width:1px;stroke-linecap:butt;"/>
    <g transform="matrix(0.754808,0,0,1,-1.1,-2.89427)">
        <rect x="1.457" y="2.894" width="5.299" height="4.015" style="fill:white;stroke:black;stroke-width:0.47px;stroke-linecap:square;stroke-linejoin:miter;stroke-miterlimit:100;"/>
    </g>
    <g transform="matrix(0.754808,0,0,1,-1.1,1.10573)">
        <rect x="1.457" y="2.894" width="5.299" height="4.015" style="fill:white;stroke:black;stroke-width:0.47px;stroke-linecap:square;stroke-linejoin:miter;stroke-miterlimit:100;"/>
    </g>
    <g transform="matrix(0.754808,0,0,1,2.87452,1.10573)">
        <rect x="1.457" y="2.894" width="5.299" height="4.015" style="fill:white;stroke:black;stroke-width:0.47px;stroke-linecap:square;stroke-linejoin:miter;stroke-miterlimit:100;"/>
    </g>
    <g transform="matrix(0.754808,0,0,1,6.9,1.10573)">
        <rect x="1.457" y="2.894" width="5.299" height="4.015" style="fill:rgb(201,180,88);stroke:black;stroke-width:0.47px;stroke-linecap:square;stroke-linejoin:miter;stroke-miterlimit:100;"/>
    </g>
    <g transform="matrix(0.754808,0,0,1,10.8847,1.10573)">
        <rect x="1.457" y="2.894" width="5.299" height="4.015" style="fill:rgb(201,180,88);stroke:black;stroke-width:0.47px;stroke-linecap:square;stroke-linejoin:miter;stroke-miterlimit:100;"/>
    </g>
    <g transform="matrix(0.754808,0,0,1,10.8847,5.10573)">
        <rect x="1.457" y="2.894" width="5.299" height="4.015" style="fill:rgb(106,170,100);stroke:black;stroke-width:0.47px;stroke-linecap:square;stroke-linejoin:miter;stroke-miterlimit:100;"/>
    </g>
    <g transform="matrix(0.754808,0,0,1,10.8847,9.10573)">
        <rect x="1.457" y="2.894" width="5.299" height="4.015" style="fill:rgb(106,170,100);stroke:black;stroke-width:0.47px;stroke-linecap:square;stroke-linejoin:miter;stroke-miterlimit:100;"/>
    </g>
    <g transform="matrix(0.754808,0,0,1,6.9,9.10573)">
        <rect x="1.457" y="2.894" width="5.299" height="4.015" style="fill:rgb(106,170,100);stroke:black;stroke-width:0.47px;stroke-linecap:square;stroke-linejoin:miter;stroke-miterlimit:100;"/>
    </g>
    <g transform="matrix(0.754808,0,0,1,2.9,9.10573)">
        <rect x="1.457" y="2.894" width="5.299" height="4.015" style="fill:rgb(106,170,100);stroke:black;stroke-width:0.47px;stroke-linecap:square;stroke-linejoin:miter;stroke-miterlimit:100;"/>
    </g>
    <g transform="matrix(0.754808,0,0,1,2.9,5.10573)">
        <rect x="1.457" y="2.894" width="5.299" height="4.015" style="fill:rgb(201,180,88);stroke:black;stroke-width:0.47px;stroke-linecap:square;stroke-linejoin:miter;stroke-miterlimit:100;"/>
    </g>
    <g transform="matrix(0.754808,0,0,1,6.9,5.10573)">
        <rect x="1.457" y="2.894" width="5.299" height="4.015" style="fill:rgb(201,180,88);stroke:black;stroke-width:0.47px;stroke-linecap:square;stroke-linejoin:miter;stroke-miterlimit:100;"/>
    </g>
    <g transform="matrix(0.754808,0,0,1,-1.1,5.10573)">
        <rect x="1.457" y="2.894" width="5.299" height="4.015" style="fill:rgb(106,170,100);stroke:black;stroke-width:0.47px;stroke-linecap:square;stroke-linejoin:miter;stroke-miterlimit:100;"/>
    </g>
    <g transform="matrix(0.754808,0,0,1,-1.1,9.10573)">
        <rect x="1.457" y="2.894" width="5.299" height="4.015" style="fill:rgb(106,170,100);stroke:black;stroke-width:0.47px;stroke-linecap:square;stroke-linejoin:miter;stroke-miterlimit:100;"/>
    </g>
    <g transform="matrix(0.754808,0,0,1,2.9,-2.89427)">
        <rect x="1.457" y="2.894" width="5.299" height="4.015" style="fill:white;stroke:black;stroke-width:0.47px;stroke-linecap:square;stroke-linejoin:miter;stroke-miterlimit:100;"/>
    </g>
    <g transform="matrix(0.754808,0,0,1,6.9,-2.89427)">
        <rect x="1.457" y="2.894" width="5.299" height="4.015" style="fill:rgb(201,180,88);stroke:black;stroke-width:0.47px;stroke-linecap:square;stroke-linejoin:miter;stroke-miterlimit:100;"/>
    </g>
    <g transform="matrix(0.754808,0,0,1,10.9,-2.89427)">
        <rect x="1.457" y="2.894" width="5.299" height="4.015" style="fill:white;stroke:black;stroke-width:0.47px;stroke-linecap:square;stroke-linejoin:miter;stroke-miterlimit:100;"/>
    </g>
</svg>
